<svg width="15" height="11" viewBox="0 0 15 11" fill="none" xmlns="http://www.w3.org/2000/svg">
<path d="M14.684 1.30405C14.1318 1.52616 13.5478 1.67383 12.95 1.7425C13.5803 1.39797 14.0516 0.852289 14.2746 0.208862C13.6852 0.531098 13.0403 0.75821 12.368 0.880406C11.9554 0.473372 11.4194 0.190229 10.8298 0.0678217C10.2403 -0.0545859 9.62436 -0.0105931 9.06228 0.194077C8.5002 0.398747 8.01796 0.754618 7.67831 1.21539C7.33865 1.67615 7.15731 2.22049 7.15787 2.77756C7.15567 2.99021 7.17923 3.20242 7.22812 3.41025C6.03058 3.35605 4.85893 3.0695 3.78977 2.56933C2.7206 2.06915 1.77799 1.36661 1.02356 0.507635C0.636107 1.11803 0.516105 1.84175 0.688062 2.53097C0.86002 3.22018 1.31096 3.82287 1.94877 4.21592C1.4724 4.20426 1.00605 4.0872 0.589047 3.8746V3.90512C0.589692 4.54547 0.829456 5.16608 1.26804 5.66267C1.70663 6.15926 2.3173 6.50154 2.99742 6.63199C2.73978 6.69498 2.47421 6.72608 2.20767 6.72449C2.01639 6.72769 1.82529 6.71188 1.63769 6.67731C1.83197 7.22765 2.20642 7.70899 2.70956 8.05517C3.2127 8.40135 3.81982 8.59537 4.44745 8.61054C3.38315 9.37708 2.07116 9.79322 0.720504 9.79268C0.479704 9.79424 0.239043 9.78157 0 9.75476C1.37595 10.572 2.97921 11.0044 4.61604 10.9998C5.7432 11.007 6.8607 10.8078 7.90361 10.4136C8.94652 10.0194 9.89406 9.43808 10.6912 8.70348C11.4883 7.96887 12.1192 7.09558 12.5471 6.13434C12.975 5.1731 13.1914 4.14307 13.1838 3.10408C13.1838 2.98106 13.1838 2.86266 13.1728 2.74518C13.7675 2.35358 14.2796 1.8652 14.684 1.30405Z" fill="#03A9F4"/>
</svg>
