<svg width="18" height="17" viewBox="0 0 18 17" fill="none" xmlns="http://www.w3.org/2000/svg">
<path d="M5.58261e-08 8.29405C0.000396526 6.65338 0.528572 5.04968 1.5177 3.68567C2.50683 2.32167 3.91252 1.25866 5.55703 0.631018C7.20154 0.00337197 9.01099 -0.160657 10.7567 0.159579C12.5023 0.479815 14.1058 1.26996 15.3643 2.43016C16.6228 3.59035 17.4799 5.06847 17.8271 6.67762C18.1743 8.28677 17.996 9.95471 17.3149 11.4705C16.6338 12.9863 15.4805 14.2817 14.0007 15.1933C12.5208 16.1049 10.7809 16.5916 9.00097 16.5918C7.81886 16.5918 6.64829 16.3773 5.55617 15.9602C4.46406 15.5432 3.47174 14.9321 2.63591 14.1615C1.80008 13.391 1.13711 12.4763 0.684825 11.4696C0.232542 10.4629 -0.000131582 9.38369 5.58261e-08 8.29405Z" fill="#FFAF38"/>
</svg>
