<svg width="18" height="17" viewBox="0 0 18 17" fill="none" xmlns="http://www.w3.org/2000/svg">
<path d="M8.99935 16.5926C7.4648 16.5924 5.95578 16.2306 4.61565 15.5415C3.27551 14.8524 2.14878 13.8588 1.34249 12.6553C0.536197 11.4518 0.0771294 10.0784 0.00890115 8.66527C-0.0593271 7.25216 0.265574 5.84619 0.952689 4.5814C1.6398 3.31661 2.66636 2.23511 3.93478 1.43899C5.20321 0.642862 6.67134 0.158703 8.19981 0.0328867C9.72829 -0.0929291 11.2663 0.143563 12.6677 0.719923C14.0691 1.29628 15.2873 2.19341 16.2067 3.32597H15.004V3.88038H16.6206C16.7419 4.05684 16.8562 4.23964 16.9625 4.42442H14.4026V4.97883H17.2521C17.3403 5.1636 17.4195 5.34846 17.4896 5.53324H13.8012V6.0872H17.6781C18.1653 7.72612 18.0982 9.46326 17.4856 11.0661H13.8012V11.6205H17.248C17.1578 11.8117 17.0607 11.9899 16.9625 12.1663H14.4026V12.7207H16.6136C16.4803 12.9147 16.3411 13.1005 16.1997 13.2751H15.004V13.8296H15.7056C14.8609 14.6983 13.8272 15.3934 12.6717 15.8695C11.5163 16.3456 10.265 16.5918 8.99935 16.5926Z" fill="#E63737"/>
</svg>
