<svg width="39" height="24" viewBox="0 0 39 24" fill="none" xmlns="http://www.w3.org/2000/svg">
<path d="M1.69617 0H37.304C37.5313 0.00414764 37.7553 0.0497613 37.9635 0.133776C38.1718 0.217791 38.36 0.338664 38.5175 0.489749C38.6749 0.640833 38.7987 0.819173 38.8814 1.01432C38.9642 1.20946 39.0043 1.41783 38.9997 1.6273V21.9649C39.0087 22.3878 38.8351 22.7966 38.5171 23.1016C38.1991 23.4065 37.7628 23.5825 37.304 23.5909H1.69617C1.23739 23.5825 0.80097 23.4065 0.482955 23.1016C0.16494 22.7966 -0.00864486 22.3878 0.000352713 21.9649V1.6273C-0.00423781 1.41783 0.0360209 1.20946 0.118767 1.01432C0.201513 0.819173 0.325104 0.640833 0.482582 0.489749C0.640061 0.338664 0.828282 0.217791 1.03651 0.133776C1.24473 0.0497613 1.46892 0.00414764 1.69617 0Z" fill="#353A40"/>
<path d="M23.0953 15.542C22.8262 15.4159 22.6048 15.2172 22.4602 14.973C22.2867 14.674 22.2024 14.3383 22.2159 13.9994C22.201 13.7685 22.2358 13.5371 22.3187 13.3187C22.4015 13.1003 22.5306 12.8993 22.6984 12.7272C22.8768 12.5706 23.0881 12.4494 23.3194 12.3712C23.5507 12.2931 23.797 12.2594 24.0429 12.2727C24.2907 12.258 24.5392 12.2901 24.7731 12.3671C25.0069 12.4441 25.2212 12.5643 25.4029 12.7203C25.5691 12.8892 25.6969 13.087 25.7789 13.3022C25.8609 13.5173 25.8954 13.7453 25.8803 13.9729C25.8954 14.3028 25.8256 14.6314 25.6766 14.9318C25.5421 15.1762 25.3326 15.3789 25.0741 15.5145C24.7714 15.6621 24.432 15.734 24.0898 15.723C23.7476 15.7343 23.4071 15.6724 23.0953 15.542ZM23.5085 13.2742C23.3773 13.4978 23.3086 13.748 23.3086 14.0022C23.3086 14.2564 23.3773 14.5066 23.5085 14.7302C23.5777 14.7994 23.6619 14.8545 23.7554 14.8924C23.849 14.9302 23.95 14.9501 24.0521 14.9501C24.1543 14.9501 24.2553 14.9302 24.3489 14.8924C24.4424 14.8545 24.5264 14.7994 24.5956 14.7302C24.7499 14.4981 24.8179 14.2259 24.7891 13.955C24.811 13.7105 24.739 13.4669 24.5856 13.2664C24.5183 13.1947 24.4342 13.1381 24.3397 13.1006C24.2452 13.063 24.1428 13.0455 24.04 13.0497C23.9387 13.0471 23.8381 13.0658 23.746 13.1047C23.6539 13.1436 23.5725 13.2018 23.5085 13.2742ZM13.4192 15.6891C13.2418 15.6729 13.0692 15.6265 12.9103 15.5521C12.7662 15.4796 12.639 15.3816 12.5358 15.2639C12.4301 15.1522 12.3507 15.0219 12.3027 14.8804C12.2402 14.6981 12.206 14.5085 12.2009 14.3174V12.33H13.291V14.3641C13.2861 14.4415 13.2979 14.5192 13.3257 14.5923C13.3534 14.6654 13.3967 14.7326 13.4529 14.7902C13.5764 14.888 13.7338 14.9418 13.8966 14.9418C14.0595 14.9418 14.2169 14.888 14.3404 14.7902C14.3966 14.732 14.4397 14.664 14.4673 14.5904C14.4949 14.5169 14.5064 14.4391 14.5012 14.3614V12.3272H15.5914V14.3146C15.592 14.5062 15.5576 14.6966 15.4897 14.8777C15.4269 15.05 15.3224 15.2067 15.1843 15.3363C15.0624 15.4588 14.9126 15.5548 14.7456 15.6176C14.5001 15.6964 14.241 15.734 13.9811 15.7285C13.7935 15.725 13.6063 15.7116 13.4203 15.6881L13.4192 15.6891ZM28.8291 15.6666L27.5058 13.835V15.6666H26.4777V12.3309H27.4956L28.8281 14.1758V12.3309H29.8582V15.6666H28.8291ZM18.6726 15.6666L17.3494 13.835V15.6666H16.3213V12.3309H17.3392L18.6706 14.1758V12.3309H19.7006V15.6666H18.6726ZM20.4742 15.6579V12.3282H21.5735V15.6579H20.4742ZM12.1225 10.9844C11.8868 10.7594 11.7469 10.4639 11.7285 10.1516L12.7689 10.0906C12.7798 10.2207 12.8266 10.3458 12.9052 10.4544C12.9619 10.5216 13.0354 10.5752 13.1194 10.6106C13.2034 10.6461 13.2954 10.6626 13.3877 10.6583C13.518 10.6662 13.647 10.6288 13.7491 10.5538C13.7873 10.5259 13.8183 10.4906 13.8398 10.4503C13.8613 10.4099 13.8728 10.3656 13.8734 10.3206C13.874 10.2757 13.8636 10.2313 13.8432 10.1905C13.8227 10.1497 13.7927 10.1134 13.7552 10.0847C13.586 9.98358 13.3949 9.91758 13.1953 9.89133C12.8233 9.83392 12.4718 9.69524 12.1703 9.48634C12.071 9.40656 11.9919 9.30719 11.9391 9.19588C11.8863 9.08458 11.861 8.96409 11.8649 8.84266C11.8654 8.67029 11.9203 8.50168 12.0227 8.35749C12.1387 8.19665 12.3043 8.07167 12.4981 7.99831C12.7755 7.9004 13.0717 7.85586 13.3684 7.86774C13.7317 7.8454 14.0934 7.92867 14.4026 8.10597C14.5273 8.19693 14.6295 8.31155 14.7025 8.44179C14.7755 8.57202 14.8177 8.71504 14.826 8.86144L13.7958 8.91871C13.7824 8.79403 13.7211 8.67778 13.6229 8.59114C13.519 8.51802 13.3899 8.48183 13.2594 8.48897C13.157 8.4821 13.0553 8.50909 12.9724 8.56503C12.9419 8.5875 12.9173 8.6159 12.9006 8.64841C12.8838 8.68092 12.8754 8.71641 12.8757 8.7524C12.8765 8.7805 12.8842 8.80803 12.8981 8.83304C12.912 8.85805 12.9318 8.88018 12.9561 8.89718C13.0673 8.96242 13.1928 9.00397 13.3236 9.01904C13.6773 9.07942 14.0221 9.17829 14.3506 9.31362C14.5359 9.39545 14.6922 9.52396 14.8016 9.68425C14.8961 9.83363 14.9447 10.0038 14.9421 10.1768C14.9433 10.3868 14.8778 10.5925 14.7537 10.7687C14.6261 10.9505 14.443 11.0934 14.2275 11.1796C13.9574 11.2801 13.6676 11.3281 13.3765 11.3198C12.9269 11.3631 12.4769 11.2422 12.1225 10.9835V10.9844ZM28.8301 11.2566L27.5069 9.42449V11.2566H26.4788V7.92134H27.4967L28.8291 9.76672V7.92134H29.8591V11.2566H28.8301ZM24.8858 11.2566L24.3015 10.2368C24.2545 10.1401 24.1871 10.053 24.1031 9.98067C24.0248 9.92904 23.9306 9.90176 23.8343 9.90279H23.7376V11.2566H22.6392V7.92134H24.4603C24.7215 7.91189 24.9827 7.93934 25.2349 8.00289C25.412 8.05622 25.5644 8.16275 25.6676 8.30572C25.7807 8.46624 25.8379 8.65498 25.8315 8.84632C25.836 9.01349 25.7928 9.17905 25.7062 9.32599C25.6223 9.45957 25.5033 9.57124 25.3602 9.65127C25.2406 9.7139 25.111 9.75894 24.9763 9.78459C25.0773 9.81209 25.1734 9.85308 25.2614 9.90645C25.3268 9.95866 25.3853 10.0179 25.4355 10.0828C25.4936 10.1471 25.545 10.2164 25.5892 10.2895L26.1185 11.2566H24.8858ZM23.7386 9.27147H24.1997C24.2974 9.26498 24.3942 9.24958 24.4888 9.22612C24.5597 9.21268 24.6228 9.17575 24.666 9.12212C24.7119 9.0663 24.7362 8.99791 24.7352 8.92787C24.7383 8.88156 24.7302 8.83529 24.7113 8.79226C24.6925 8.74923 24.6633 8.71041 24.6262 8.6791C24.5044 8.6101 24.3612 8.58026 24.219 8.59389H23.7386V9.27147ZM19.0564 11.2566V7.92134H21.9858V8.63329H20.1537V9.16335H21.8556V9.8446H20.1537V10.5016H22.0418V11.2566H19.0564ZM16.3568 11.2566V8.74507H15.2423V7.92134H18.5657V8.74507H17.446V11.2566H16.3568ZM8.35115 11.2566V7.92134H11.2807V8.63329H9.44844V9.16335H11.1494V9.8446H9.44036V10.5016H11.3265V11.2566H8.35115ZM6.1454 11.2566L5.52549 9.15602L4.9077 11.2566H3.83589L3.04899 7.92134H4.08726L4.46089 9.78825L5.00847 7.92134H6.04264L6.59122 9.78642L6.96485 7.92134H7.99802L7.21833 11.2566H6.1454Z" fill="#ECD345"/>
<path d="M34.7348 15.7249V7.86232H35.9562V15.7249H34.7348ZM31.6914 15.7249V7.86232H32.9128V15.7249H31.6914Z" fill="#ECD345"/>
</svg>
