<svg width="27" height="9" viewBox="0 0 27 9" fill="none" xmlns="http://www.w3.org/2000/svg">
<path d="M24.9735 8.25206L24.7148 7.02666H21.908L21.4471 8.25206H19.1454L22.4378 0.620094C22.5143 0.43084 22.6546 0.268994 22.838 0.158489C23.0215 0.047984 23.2385 -0.00531187 23.4573 0.00600687H25.2323L27 8.25298L24.9735 8.25206ZM23.7046 2.24842L22.5445 5.33457H24.3576L23.7046 2.24842ZM16.2237 2.35654C16.2237 3.25743 19.3035 3.45022 19.3035 5.5217C19.3035 7.51653 17.0296 8.25021 15.5235 8.25021C14.6675 8.26326 13.8182 8.1097 13.0309 7.79969L13.3594 6.01103C14.2628 6.69238 17.0029 6.88659 17.0029 5.80495C17.0029 4.72331 13.9487 4.69758 13.9487 2.6384C13.9487 0.450527 16.5502 0 17.6445 0C18.3224 0.0160184 18.9929 0.133485 19.63 0.347475L19.3148 2.05943C18.3724 1.57492 16.2217 1.45935 16.2217 2.36024L16.2237 2.35654ZM9.46441 8.25206L10.8442 0.00462067H13.0524L11.6727 8.25206H9.46441ZM4.17014 8.25206L2.25438 1.09602C2.59281 1.29086 2.91569 1.50784 3.22047 1.74523C4.14137 2.47161 4.84205 3.40552 5.25416 4.45618L5.50367 5.67788L7.6093 0.00600687H9.98587L6.47277 8.25298L4.17014 8.25206ZM0.275077 0.231034L0.17244 0.202848L0.275077 0.231034ZM0.0492507 0.169579L0 0.157103L0.0492507 0.169579ZM0.592387 0.330378L0.460927 0.287868L0.592387 0.330378ZM2.12304 1.01655C2.0546 0.977434 1.98609 0.939763 1.91765 0.903803C1.98335 0.945441 2.0511 0.981423 2.12091 1.02117L2.12304 1.01655ZM1.59532 0.74208C1.53578 0.713691 1.47426 0.683556 1.41574 0.65706C1.4722 0.688288 1.53275 0.718311 1.59332 0.746701L1.59532 0.74208ZM1.04605 0.499033L0.924986 0.450516L1.04605 0.499033Z" fill="#494CA3"/>
</svg>
