<svg width="8" height="14" viewBox="0 0 8 14" fill="none" xmlns="http://www.w3.org/2000/svg">
<path d="M0.24795 7.4562H1.91232V13.7743C1.91232 13.8341 1.93813 13.8916 1.98406 13.9339C2.03 13.9762 2.0923 14 2.15726 14H4.98005C5.04502 14 5.10731 13.9762 5.15325 13.9339C5.19918 13.8916 5.22499 13.8341 5.22499 13.7743V7.48581H7.13932C7.19934 7.48572 7.25725 7.46532 7.30203 7.42847C7.34682 7.39163 7.37536 7.3409 7.38225 7.28594L7.67336 4.95969C7.67732 4.9281 7.674 4.89609 7.6636 4.86576C7.65321 4.83543 7.63597 4.80747 7.61304 4.78371C7.5901 4.75995 7.56198 4.74092 7.53051 4.72787C7.49904 4.71483 7.46493 4.70806 7.43042 4.70801H5.22198V3.25064C5.22198 2.81111 5.47897 2.58811 5.98491 2.58811H7.42641C7.49137 2.58811 7.55367 2.56432 7.5996 2.52198C7.64554 2.47964 7.67135 2.42221 7.67135 2.36233V0.227628C7.67189 0.168064 7.64688 0.110717 7.60175 0.0680814C7.55662 0.0254452 7.49504 0.000974422 7.43042 0L5.44183 0H5.35047C4.43475 0.00297865 3.55088 0.310145 2.86095 0.86517C2.53539 1.12742 2.2856 1.46012 2.13404 1.83337C1.98247 2.20662 1.93388 2.60873 1.99263 3.00358V4.70893H0.244933C0.179971 4.70893 0.117674 4.73272 0.071739 4.77506C0.0258044 4.8174 7.00219e-10 4.87483 7.00219e-10 4.93471V7.23042C-2.44989e-06 7.2603 0.00642751 7.28989 0.0189246 7.31747C0.0314218 7.34504 0.0497391 7.37006 0.0728036 7.39106C0.0958681 7.41206 0.123223 7.42863 0.153289 7.43981C0.183355 7.451 0.215532 7.45656 0.24795 7.4562Z" fill="#385C8E"/>
</svg>
