<svg width="31" height="34" viewBox="0 0 31 34" fill="none" xmlns="http://www.w3.org/2000/svg">
<rect x="4.89478" width="26.1053" height="34" fill="white"/>
<path d="M8.59404 27.6958C8.88463 27.6958 9.12021 27.4996 9.12021 27.2575C9.12021 27.0155 8.88463 26.8193 8.59404 26.8193C8.30344 26.8193 8.06787 27.0155 8.06787 27.2575C8.06787 27.4996 8.30344 27.6958 8.59404 27.6958Z" fill="#22262A" stroke="#22262A" stroke-width="2" stroke-miterlimit="10" stroke-linecap="round" stroke-linejoin="round"/>
<path d="M15.9604 27.6958C16.251 27.6958 16.4865 27.4996 16.4865 27.2575C16.4865 27.0155 16.251 26.8193 15.9604 26.8193C15.6698 26.8193 15.4342 27.0155 15.4342 27.2575C15.4342 27.4996 15.6698 27.6958 15.9604 27.6958Z" fill="#22262A" stroke="#22262A" stroke-width="2" stroke-miterlimit="10" stroke-linecap="round" stroke-linejoin="round"/>
<path d="M2.80627 13.6708H4.91094L7.01561 24.1896H17.539L19.6436 16.3005H5.96328" stroke="#22262A" stroke-width="2" stroke-linecap="round" stroke-linejoin="round"/>
</svg>
