<svg width="39" height="24" viewBox="0 0 39 24" fill="none" xmlns="http://www.w3.org/2000/svg">
<path d="M1.69601 0H37.3042C37.7642 0.0113915 38.2007 0.189947 38.5184 0.496928C38.836 0.803908 39.009 1.21428 38.9997 1.63843V22.1181C39.009 22.5423 38.836 22.9526 38.5184 23.2596C38.2007 23.5666 37.7642 23.7452 37.3042 23.7566H1.69601C1.23594 23.7452 0.799334 23.5666 0.481667 23.2596C0.164 22.9526 -0.00898804 22.5423 0.000382744 22.1181V1.63935C-0.00926241 1.21504 0.163721 0.804575 0.481417 0.497389C0.799113 0.190203 1.23576 0.0113908 1.69601 0Z" fill="#F1F1F1"/>
<path d="M0.422729 23.1983C0.150435 22.8951 0.00213355 22.5135 0.00351356 22.12V1.63935C-0.0061316 1.21504 0.166726 0.804575 0.484422 0.497389C0.802118 0.190203 1.23876 0.0113908 1.69902 0H37.3062C37.7384 0.000894065 38.153 0.158241 38.4604 0.43833L0.427859 23.1983H0.422729Z" fill="white" fill-opacity="0.73"/>
<path d="M15.0167 16.976L16.3493 14.7553L15.6071 9.42195H17.4226L17.7158 12.5784L19.4924 9.42195H21.3664L17.0516 16.976H15.0167ZM9.32402 12.9923C9.60388 11.6939 10.9642 11.2818 12.9756 11.2818C13.0955 10.7045 12.6968 10.5597 12.0181 10.5814C11.4198 10.6081 10.8316 10.734 10.2816 10.9529L10.4404 9.65541C11.1007 9.46628 11.7846 9.35535 12.4754 9.32551C13.7322 9.30472 15.1294 9.67458 14.8106 11.1799L14.0325 14.7234H12.217L12.3359 14.1864C12.1251 14.3868 11.8732 14.5468 11.5948 14.6565C11.3163 14.7662 11.017 14.8236 10.7142 14.8254C9.85409 14.8216 9.08834 14.3054 9.32514 12.9881L9.32402 12.9923ZM11.1806 12.9097C11.1234 12.9843 11.091 13.0727 11.0871 13.1639C11.0832 13.2551 11.1082 13.3457 11.1588 13.4241C11.2095 13.5026 11.2836 13.566 11.3724 13.6064C11.4613 13.6468 11.561 13.6623 11.6594 13.6516C11.884 13.6608 12.1046 13.5949 12.2807 13.4661C12.4568 13.3373 12.5765 13.1545 12.6178 12.9507C12.6416 12.7915 12.6758 12.6337 12.7203 12.4783H12.261C12.0565 12.4608 11.8505 12.4907 11.6617 12.5655C11.473 12.6402 11.3076 12.7571 11.1806 12.906V12.9097ZM3.0707 14.7234L4.57149 7.94593H7.96163C8.26384 7.94346 8.56231 8.00793 8.83197 8.13372C9.10163 8.25951 9.33466 8.44302 9.51147 8.66894C9.68829 8.89487 9.80377 9.15654 9.84822 9.4321C9.89267 9.70765 9.86474 9.98889 9.76688 10.2525C9.6693 10.8722 9.33229 11.4386 8.8177 11.8475C8.30312 12.2564 7.64565 12.4807 6.96628 12.4783H5.54845L5.06154 14.7234H3.0707ZM5.83139 11.1799H6.7643C7.03719 11.1598 7.29557 11.0582 7.50062 10.891C7.70566 10.7239 7.84628 10.4997 7.90119 10.2525C7.94422 10.1507 7.96001 10.0413 7.94724 9.93271C7.93447 9.82417 7.89354 9.71997 7.82786 9.62911C7.76218 9.53826 7.67371 9.46353 7.56995 9.41087C7.46618 9.35822 7.35011 9.329 7.23169 9.32644H6.25786L5.83139 11.1799Z" fill="#3284AE"/>
<path d="M26.9739 12.988C27.2568 11.6896 28.6315 11.279 30.6705 11.279C30.8119 10.7007 30.4081 10.5578 29.7213 10.5786C29.1101 10.6075 28.5089 10.7329 27.9437 10.9491L28.1056 9.65161C28.782 9.46484 29.4805 9.35428 30.1857 9.32263C31.4579 9.30184 32.8509 9.67126 32.528 11.1756L31.7408 14.7182H29.9231L30.0441 14.1835C29.6038 14.589 29.0079 14.8187 28.3854 14.8225C27.5059 14.8216 26.7309 14.3062 26.9739 12.988ZM28.8529 12.9059C28.7977 12.9829 28.7676 13.0732 28.7665 13.1656C28.7653 13.258 28.7931 13.3485 28.8464 13.4268C28.8997 13.505 28.9763 13.5676 29.0671 13.6067C29.1578 13.6459 29.2591 13.6602 29.3584 13.6478C29.5816 13.657 29.8008 13.5909 29.9754 13.4623C30.15 13.3337 30.268 13.1511 30.3076 12.9483C30.3475 12.7829 30.3681 12.6384 30.4102 12.4758H29.9662C29.7561 12.4562 29.544 12.4854 29.3491 12.5603C29.1542 12.6352 28.9826 12.7536 28.8498 12.9049L28.8529 12.9059ZM32.5803 14.7182L34.0832 7.92044H35.9489L34.4266 14.7182H32.5803ZM20.7205 14.7182L22.2193 7.94212H25.6022C25.9036 7.94137 26.2008 8.00685 26.4692 8.13314C26.7376 8.25944 26.9695 8.44295 27.1455 8.66837C27.3216 8.89379 27.4368 9.15453 27.4817 9.42922C27.5265 9.7039 27.4997 9.98453 27.4033 10.2477C27.3056 10.8697 26.9667 11.4378 26.4493 11.847C25.9319 12.2561 25.2711 12.4786 24.5893 12.4731H23.1922L22.6857 14.7173L20.7205 14.7182ZM23.4751 11.1756H24.3854C24.6604 11.1561 24.9215 11.0556 25.1296 10.8886C25.3377 10.7216 25.4819 10.4971 25.5408 10.2487C25.5816 10.1456 25.5951 10.035 25.5802 9.92614C25.5653 9.81725 25.5224 9.7131 25.4552 9.62254C25.3879 9.53198 25.2981 9.45785 25.1934 9.40568C25.0886 9.35352 24.9719 9.32486 24.8529 9.32263H23.881L23.4751 11.1756Z" fill="#3CA9C7"/>
</svg>
